<svg xmlns="http://www.w3.org/2000/svg" viewBox="0 0 512 512">
  <rect width="512" height="512" rx="112" fill="#0a0a12"/>
  <circle cx="256" cy="256" r="140" fill="#26215C" opacity="0.18"/>
  <circle cx="256" cy="256" r="100" fill="#26215C" opacity="0.22"/>
  <ellipse cx="256" cy="66" rx="26" ry="68" fill="#534AB7" opacity="0.95" stroke="#7F77DD" stroke-width="1.5" transform="rotate(0 256 256)"/>
  <ellipse cx="256" cy="66" rx="26" ry="68" fill="#534AB7" opacity="0.95" stroke="#7F77DD" stroke-width="1.5" transform="rotate(60 256 256)"/>
  <ellipse cx="256" cy="66" rx="26" ry="68" fill="#534AB7" opacity="0.95" stroke="#7F77DD" stroke-width="1.5" transform="rotate(120 256 256)"/>
  <ellipse cx="256" cy="66" rx="26" ry="68" fill="#534AB7" opacity="0.95" stroke="#7F77DD" stroke-width="1.5" transform="rotate(180 256 256)"/>
  <ellipse cx="256" cy="66" rx="26" ry="68" fill="#534AB7" opacity="0.95" stroke="#7F77DD" stroke-width="1.5" transform="rotate(240 256 256)"/>
  <ellipse cx="256" cy="66" rx="26" ry="68" fill="#534AB7" opacity="0.95" stroke="#7F77DD" stroke-width="1.5" transform="rotate(300 256 256)"/>
  <circle cx="256" cy="256" r="56" fill="#1a1424"/>
  <circle cx="256" cy="256" r="38" fill="#3C3489"/>
  <circle cx="256" cy="256" r="22" fill="#534AB7"/>
  <circle cx="256" cy="256" r="10" fill="#CECBF6"/>
  <circle cx="256" cy="256" r="4" fill="#0a0a12"/>
</svg>
