<svg xmlns="http://www.w3.org/2000/svg" viewBox="0 0 320 80">
  <!-- mark -->
  <g transform="translate(40 40)">
    <!-- ambient -->
    <circle cx="0" cy="0" r="28" fill="#26215C" opacity="0.18"/>
    <!-- ghost petals -->
    <ellipse cx="0" cy="-22" rx="5" ry="14" fill="#AFA9EC" opacity="0.08" transform="rotate(0 0 0)"/>
    <ellipse cx="0" cy="-22" rx="5" ry="14" fill="#AFA9EC" opacity="0.08" transform="rotate(60 0 0)"/>
    <ellipse cx="0" cy="-22" rx="5" ry="14" fill="#AFA9EC" opacity="0.08" transform="rotate(120 0 0)"/>
    <ellipse cx="0" cy="-22" rx="5" ry="14" fill="#AFA9EC" opacity="0.08" transform="rotate(180 0 0)"/>
    <ellipse cx="0" cy="-22" rx="5" ry="14" fill="#AFA9EC" opacity="0.08" transform="rotate(240 0 0)"/>
    <ellipse cx="0" cy="-22" rx="5" ry="14" fill="#AFA9EC" opacity="0.08" transform="rotate(300 0 0)"/>
    <!-- main leaves -->
    <ellipse cx="0" cy="-23" rx="5.5" ry="15" fill="#534AB7" opacity="0.95" stroke="#7F77DD" stroke-width="0.6" transform="rotate(0 0 0)"/>
    <line x1="0" y1="-10" x2="0" y2="-36" stroke="#CECBF6" stroke-width="0.5" opacity="0.35" transform="rotate(0 0 0)"/>
    <ellipse cx="0" cy="-23" rx="5.5" ry="15" fill="#534AB7" opacity="0.95" stroke="#7F77DD" stroke-width="0.6" transform="rotate(60 0 0)"/>
    <line x1="0" y1="-10" x2="0" y2="-36" stroke="#CECBF6" stroke-width="0.5" opacity="0.35" transform="rotate(60 0 0)"/>
    <ellipse cx="0" cy="-23" rx="5.5" ry="15" fill="#534AB7" opacity="0.95" stroke="#7F77DD" stroke-width="0.6" transform="rotate(120 0 0)"/>
    <line x1="0" y1="-10" x2="0" y2="-36" stroke="#CECBF6" stroke-width="0.5" opacity="0.35" transform="rotate(120 0 0)"/>
    <ellipse cx="0" cy="-23" rx="5.5" ry="15" fill="#534AB7" opacity="0.95" stroke="#7F77DD" stroke-width="0.6" transform="rotate(180 0 0)"/>
    <line x1="0" y1="-10" x2="0" y2="-36" stroke="#CECBF6" stroke-width="0.5" opacity="0.35" transform="rotate(180 0 0)"/>
    <ellipse cx="0" cy="-23" rx="5.5" ry="15" fill="#534AB7" opacity="0.95" stroke="#7F77DD" stroke-width="0.6" transform="rotate(240 0 0)"/>
    <line x1="0" y1="-10" x2="0" y2="-36" stroke="#CECBF6" stroke-width="0.5" opacity="0.35" transform="rotate(240 0 0)"/>
    <ellipse cx="0" cy="-23" rx="5.5" ry="15" fill="#534AB7" opacity="0.95" stroke="#7F77DD" stroke-width="0.6" transform="rotate(300 0 0)"/>
    <line x1="0" y1="-10" x2="0" y2="-36" stroke="#CECBF6" stroke-width="0.5" opacity="0.35" transform="rotate(300 0 0)"/>
    <!-- seed -->
    <circle cx="0" cy="0" r="10" fill="#1a1424"/>
    <circle cx="0" cy="0" r="7"  fill="#3C3489"/>
    <circle cx="0" cy="0" r="4"  fill="#534AB7"/>
    <circle cx="0" cy="0" r="1.6" fill="#CECBF6"/>
  </g>
  <!-- wordmark -->
  <text x="76" y="34" font-family="Georgia, 'Times New Roman', serif" font-size="22" fill="#CECBF6" letter-spacing="5">SANCTUM</text>
  <text x="77" y="52" font-family="system-ui, sans-serif" font-size="7" fill="#534AB7" letter-spacing="3">PRIVATE · PERSONAL · YOURS</text>
</svg>
